<svg width="1280" height="832" viewBox="0 0 1280 832" fill="none" xmlns="http://www.w3.org/2000/svg">
    <rect width="1280" height="832" fill="white" />
    <path
        d="M739.149 283.284C752.555 282.773 767.818 283.086 781.292 283.196C772.539 293.519 764.301 304.716 755.859 315.504C725.6 354.181 696.175 394.549 664.644 432.113C653.207 443.03 637.353 446.958 623.528 438.195C613.587 431.89 609.193 424.145 602.109 415.616C594.088 405.952 586.986 394.724 578.481 385.815C597.063 392.67 617.267 391.393 636.221 386.909C661.841 378.322 682.96 366.579 702.799 347.929C704.681 346.161 711.012 342.327 711.559 340.061C710.095 339.13 697.026 348.04 694.729 349.445C669.796 364.723 641.183 379.627 611.344 380.406C604.828 380.581 597.251 379.124 590.868 378.006C623.917 374.37 650.889 347.981 672.95 325.286C692.326 305.354 709.583 285.693 739.149 283.284Z"
        fill="url(#paint0_linear_3677_331)" />
    <path
        d="M499 283.07L539.156 283.2C547.951 283.212 557.032 282.8 565.762 283.968C572.831 284.914 580.097 286.741 586.317 290.33C601.188 298.91 625.75 330.14 636.897 344.693C633.438 348.311 627.204 352.473 622.972 355.294C609.652 364.034 594.299 369.414 578.294 367.675C575.323 367.628 562.975 364.906 561.167 362.693C540.029 336.779 520.063 308.99 499 283.07Z"
        fill="url(#paint1_linear_3677_331)" />
    <path
        d="M597.059 494L586.295 468.8H593.999L603.071 490.616H598.535L607.823 468.8H614.879L604.079 494H597.059ZM628.746 494.504C626.73 494.504 624.87 494.18 623.166 493.532C621.462 492.884 619.974 491.972 618.702 490.796C617.454 489.596 616.482 488.204 615.786 486.62C615.09 485.036 614.742 483.296 614.742 481.4C614.742 479.504 615.09 477.764 615.786 476.18C616.482 474.596 617.454 473.216 618.702 472.04C619.974 470.84 621.462 469.916 623.166 469.268C624.87 468.62 626.73 468.296 628.746 468.296C630.786 468.296 632.646 468.62 634.326 469.268C636.03 469.916 637.506 470.84 638.754 472.04C640.002 473.216 640.974 474.596 641.67 476.18C642.39 477.764 642.75 479.504 642.75 481.4C642.75 483.296 642.39 485.048 641.67 486.656C640.974 488.24 640.002 489.62 638.754 490.796C637.506 491.972 636.03 492.884 634.326 493.532C632.646 494.18 630.786 494.504 628.746 494.504ZM628.746 488.6C629.706 488.6 630.594 488.432 631.41 488.096C632.25 487.76 632.97 487.28 633.57 486.656C634.194 486.008 634.674 485.24 635.01 484.352C635.37 483.464 635.55 482.48 635.55 481.4C635.55 480.296 635.37 479.312 635.01 478.448C634.674 477.56 634.194 476.804 633.57 476.18C632.97 475.532 632.25 475.04 631.41 474.704C630.594 474.368 629.706 474.2 628.746 474.2C627.786 474.2 626.886 474.368 626.046 474.704C625.23 475.04 624.51 475.532 623.886 476.18C623.286 476.804 622.806 477.56 622.446 478.448C622.11 479.312 621.942 480.296 621.942 481.4C621.942 482.48 622.11 483.464 622.446 484.352C622.806 485.24 623.286 486.008 623.886 486.656C624.51 487.28 625.23 487.76 626.046 488.096C626.886 488.432 627.786 488.6 628.746 488.6ZM651.765 494V483.344L653.421 487.628L642.153 468.8H649.677L657.813 482.444H653.457L661.629 468.8H668.541L657.309 487.628L658.893 483.344V494H651.765ZM665.396 494L676.52 468.8H683.54L694.7 494H687.284L678.572 472.292H681.38L672.668 494H665.396ZM671.48 489.104L673.316 483.848H685.628L687.464 489.104H671.48Z"
        fill="url(#paint2_linear_3677_331)" />
    <path
        d="M541.387 523V514.312H537.947V511.8H547.979V514.312H544.555V523H541.387ZM548.843 523V514.328H551.739V516.856L551.307 516.136C551.563 515.485 551.979 515 552.555 514.68C553.131 514.349 553.83 514.184 554.651 514.184V516.92C554.513 516.899 554.39 516.888 554.283 516.888C554.187 516.877 554.081 516.872 553.963 516.872C553.345 516.872 552.843 517.043 552.459 517.384C552.075 517.715 551.883 518.259 551.883 519.016V523H548.843ZM560.67 523V521.384L560.462 520.984V518.008C560.462 517.528 560.313 517.16 560.014 516.904C559.726 516.637 559.262 516.504 558.622 516.504C558.206 516.504 557.785 516.573 557.358 516.712C556.932 516.84 556.569 517.021 556.27 517.256L555.246 515.192C555.737 514.872 556.324 514.627 557.006 514.456C557.7 514.275 558.388 514.184 559.07 514.184C560.478 514.184 561.566 514.509 562.334 515.16C563.113 515.8 563.502 516.808 563.502 518.184V523H560.67ZM558.11 523.144C557.417 523.144 556.83 523.027 556.35 522.792C555.87 522.557 555.502 522.237 555.246 521.832C555.001 521.427 554.878 520.973 554.878 520.472C554.878 519.939 555.012 519.48 555.278 519.096C555.556 518.701 555.977 518.403 556.542 518.2C557.108 517.987 557.838 517.88 558.734 517.88H560.782V519.464H559.15C558.66 519.464 558.313 519.544 558.11 519.704C557.918 519.864 557.822 520.077 557.822 520.344C557.822 520.611 557.924 520.824 558.126 520.984C558.329 521.144 558.606 521.224 558.958 521.224C559.289 521.224 559.588 521.144 559.854 520.984C560.132 520.813 560.334 520.557 560.462 520.216L560.878 521.336C560.718 521.933 560.404 522.387 559.934 522.696C559.476 522.995 558.868 523.144 558.11 523.144ZM565.421 523V514.328H568.317V516.792L567.757 516.072C568.088 515.443 568.541 514.973 569.117 514.664C569.693 514.344 570.344 514.184 571.069 514.184C571.741 514.184 572.349 514.323 572.893 514.6C573.437 514.867 573.864 515.283 574.173 515.848C574.493 516.413 574.653 517.144 574.653 518.04V523H571.613V518.536C571.613 517.917 571.485 517.469 571.229 517.192C570.984 516.904 570.637 516.76 570.189 516.76C569.869 516.76 569.576 516.835 569.309 516.984C569.043 517.123 568.835 517.341 568.685 517.64C568.536 517.939 568.461 518.328 568.461 518.808V523H565.421ZM579.714 523.144C578.978 523.144 578.258 523.059 577.554 522.888C576.861 522.717 576.301 522.504 575.874 522.248L576.786 520.168C577.191 520.413 577.666 520.611 578.21 520.76C578.754 520.899 579.287 520.968 579.81 520.968C580.322 520.968 580.674 520.915 580.866 520.808C581.069 520.701 581.17 520.557 581.17 520.376C581.17 520.205 581.074 520.083 580.882 520.008C580.701 519.923 580.455 519.859 580.146 519.816C579.847 519.773 579.517 519.725 579.154 519.672C578.791 519.619 578.423 519.549 578.05 519.464C577.687 519.368 577.351 519.229 577.042 519.048C576.743 518.856 576.503 518.6 576.322 518.28C576.141 517.96 576.05 517.555 576.05 517.064C576.05 516.509 576.21 516.019 576.53 515.592C576.861 515.155 577.341 514.813 577.97 514.568C578.599 514.312 579.367 514.184 580.274 514.184C580.882 514.184 581.495 514.248 582.114 514.376C582.743 514.493 583.271 514.675 583.698 514.92L582.786 516.984C582.359 516.739 581.933 516.573 581.506 516.488C581.079 516.392 580.674 516.344 580.29 516.344C579.778 516.344 579.415 516.403 579.202 516.52C578.999 516.637 578.898 516.781 578.898 516.952C578.898 517.123 578.989 517.256 579.17 517.352C579.351 517.437 579.591 517.507 579.89 517.56C580.199 517.603 580.535 517.651 580.898 517.704C581.261 517.747 581.623 517.816 581.986 517.912C582.359 518.008 582.695 518.152 582.994 518.344C583.303 518.525 583.549 518.776 583.73 519.096C583.911 519.405 584.002 519.805 584.002 520.296C584.002 520.829 583.837 521.309 583.506 521.736C583.186 522.163 582.706 522.504 582.066 522.76C581.437 523.016 580.653 523.144 579.714 523.144ZM589.744 523.144C588.784 523.144 587.925 522.952 587.168 522.568C586.421 522.184 585.835 521.656 585.408 520.984C584.981 520.301 584.768 519.523 584.768 518.648C584.768 517.773 584.981 517 585.408 516.328C585.835 515.656 586.421 515.133 587.168 514.76C587.925 514.376 588.784 514.184 589.744 514.184C590.725 514.184 591.573 514.392 592.288 514.808C593.003 515.224 593.509 515.811 593.808 516.568L591.456 517.768C591.253 517.363 591.003 517.069 590.704 516.888C590.405 516.696 590.08 516.6 589.728 516.6C589.376 516.6 589.056 516.68 588.768 516.84C588.48 517 588.251 517.235 588.08 517.544C587.92 517.843 587.84 518.211 587.84 518.648C587.84 519.096 587.92 519.475 588.08 519.784C588.251 520.093 588.48 520.328 588.768 520.488C589.056 520.648 589.376 520.728 589.728 520.728C590.08 520.728 590.405 520.637 590.704 520.456C591.003 520.264 591.253 519.965 591.456 519.56L593.808 520.76C593.509 521.517 593.003 522.104 592.288 522.52C591.573 522.936 590.725 523.144 589.744 523.144ZM600.249 523V521.384L600.041 520.984V518.008C600.041 517.528 599.891 517.16 599.593 516.904C599.305 516.637 598.841 516.504 598.201 516.504C597.785 516.504 597.363 516.573 596.937 516.712C596.51 516.84 596.147 517.021 595.849 517.256L594.825 515.192C595.315 514.872 595.902 514.627 596.585 514.456C597.278 514.275 597.966 514.184 598.649 514.184C600.057 514.184 601.145 514.509 601.913 515.16C602.691 515.8 603.081 516.808 603.081 518.184V523H600.249ZM597.689 523.144C596.995 523.144 596.409 523.027 595.929 522.792C595.449 522.557 595.081 522.237 594.825 521.832C594.579 521.427 594.457 520.973 594.457 520.472C594.457 519.939 594.59 519.48 594.857 519.096C595.134 518.701 595.555 518.403 596.121 518.2C596.686 517.987 597.417 517.88 598.313 517.88H600.361V519.464H598.729C598.238 519.464 597.891 519.544 597.689 519.704C597.497 519.864 597.401 520.077 597.401 520.344C597.401 520.611 597.502 520.824 597.705 520.984C597.907 521.144 598.185 521.224 598.537 521.224C598.867 521.224 599.166 521.144 599.433 520.984C599.71 520.813 599.913 520.557 600.041 520.216L600.457 521.336C600.297 521.933 599.982 522.387 599.513 522.696C599.054 522.995 598.446 523.144 597.689 523.144ZM608.871 523.144C607.762 523.144 606.898 522.872 606.279 522.328C605.661 521.773 605.351 520.941 605.351 519.832V512.392H608.391V519.8C608.391 520.109 608.477 520.355 608.647 520.536C608.818 520.707 609.037 520.792 609.303 520.792C609.666 520.792 609.975 520.701 610.231 520.52L610.983 522.648C610.727 522.819 610.413 522.941 610.039 523.016C609.666 523.101 609.277 523.144 608.871 523.144ZM604.087 516.584V514.328H610.375V516.584H604.087ZM612.156 523V514.328H615.196V523H612.156ZM613.676 513.368C613.121 513.368 612.673 513.213 612.332 512.904C611.99 512.595 611.82 512.211 611.82 511.752C611.82 511.293 611.99 510.909 612.332 510.6C612.673 510.291 613.121 510.136 613.676 510.136C614.23 510.136 614.678 510.285 615.02 510.584C615.361 510.872 615.532 511.245 615.532 511.704C615.532 512.184 615.361 512.584 615.02 512.904C614.689 513.213 614.241 513.368 613.676 513.368ZM621.523 523.144C620.574 523.144 619.731 522.952 618.995 522.568C618.259 522.184 617.678 521.656 617.251 520.984C616.835 520.301 616.627 519.523 616.627 518.648C616.627 517.773 616.835 517 617.251 516.328C617.678 515.656 618.259 515.133 618.995 514.76C619.731 514.376 620.574 514.184 621.523 514.184C622.473 514.184 623.315 514.376 624.051 514.76C624.798 515.133 625.379 515.656 625.795 516.328C626.211 517 626.419 517.773 626.419 518.648C626.419 519.523 626.211 520.301 625.795 520.984C625.379 521.656 624.798 522.184 624.051 522.568C623.315 522.952 622.473 523.144 621.523 523.144ZM621.523 520.728C621.875 520.728 622.185 520.648 622.451 520.488C622.729 520.328 622.947 520.093 623.107 519.784C623.267 519.464 623.347 519.085 623.347 518.648C623.347 518.211 623.267 517.843 623.107 517.544C622.947 517.235 622.729 517 622.451 516.84C622.185 516.68 621.875 516.6 621.523 516.6C621.182 516.6 620.873 516.68 620.595 516.84C620.329 517 620.11 517.235 619.939 517.544C619.779 517.843 619.699 518.211 619.699 518.648C619.699 519.085 619.779 519.464 619.939 519.784C620.11 520.093 620.329 520.328 620.595 520.488C620.873 520.648 621.182 520.728 621.523 520.728ZM627.828 523V514.328H630.724V516.792L630.164 516.072C630.494 515.443 630.948 514.973 631.524 514.664C632.1 514.344 632.75 514.184 633.476 514.184C634.148 514.184 634.756 514.323 635.3 514.6C635.844 514.867 636.27 515.283 636.58 515.848C636.9 516.413 637.06 517.144 637.06 518.04V523H634.02V518.536C634.02 517.917 633.892 517.469 633.636 517.192C633.39 516.904 633.044 516.76 632.596 516.76C632.276 516.76 631.982 516.835 631.716 516.984C631.449 517.123 631.241 517.341 631.092 517.64C630.942 517.939 630.868 518.328 630.868 518.808V523H627.828ZM642.12 523.144C641.384 523.144 640.664 523.059 639.96 522.888C639.267 522.717 638.707 522.504 638.28 522.248L639.192 520.168C639.598 520.413 640.072 520.611 640.616 520.76C641.16 520.899 641.694 520.968 642.216 520.968C642.728 520.968 643.08 520.915 643.272 520.808C643.475 520.701 643.576 520.557 643.576 520.376C643.576 520.205 643.48 520.083 643.288 520.008C643.107 519.923 642.862 519.859 642.552 519.816C642.254 519.773 641.923 519.725 641.56 519.672C641.198 519.619 640.83 519.549 640.456 519.464C640.094 519.368 639.758 519.229 639.448 519.048C639.15 518.856 638.91 518.6 638.728 518.28C638.547 517.96 638.456 517.555 638.456 517.064C638.456 516.509 638.616 516.019 638.936 515.592C639.267 515.155 639.747 514.813 640.376 514.568C641.006 514.312 641.774 514.184 642.68 514.184C643.288 514.184 643.902 514.248 644.52 514.376C645.15 514.493 645.678 514.675 646.104 514.92L645.192 516.984C644.766 516.739 644.339 516.573 643.912 516.488C643.486 516.392 643.08 516.344 642.696 516.344C642.184 516.344 641.822 516.403 641.608 516.52C641.406 516.637 641.304 516.781 641.304 516.952C641.304 517.123 641.395 517.256 641.576 517.352C641.758 517.437 641.998 517.507 642.296 517.56C642.606 517.603 642.942 517.651 643.304 517.704C643.667 517.747 644.03 517.816 644.392 517.912C644.766 518.008 645.102 518.152 645.4 518.344C645.71 518.525 645.955 518.776 646.136 519.096C646.318 519.405 646.408 519.805 646.408 520.296C646.408 520.829 646.243 521.309 645.912 521.736C645.592 522.163 645.112 522.504 644.472 522.76C643.843 523.016 643.059 523.144 642.12 523.144ZM652.374 523V514.328H655.27V516.744L654.694 516.056C655.014 515.437 655.452 514.973 656.006 514.664C656.561 514.344 657.18 514.184 657.862 514.184C658.641 514.184 659.324 514.387 659.91 514.792C660.508 515.187 660.908 515.805 661.11 516.648L660.118 516.44C660.428 515.736 660.892 515.187 661.51 514.792C662.14 514.387 662.86 514.184 663.67 514.184C664.342 514.184 664.94 514.323 665.462 514.6C665.996 514.867 666.412 515.283 666.71 515.848C667.02 516.413 667.174 517.144 667.174 518.04V523H664.134V518.536C664.134 517.917 664.017 517.469 663.782 517.192C663.548 516.904 663.228 516.76 662.822 516.76C662.534 516.76 662.273 516.829 662.038 516.968C661.804 517.107 661.622 517.32 661.494 517.608C661.366 517.885 661.302 518.248 661.302 518.696V523H658.262V518.536C658.262 517.917 658.145 517.469 657.91 517.192C657.686 516.904 657.366 516.76 656.95 516.76C656.652 516.76 656.385 516.829 656.15 516.968C655.926 517.107 655.745 517.32 655.606 517.608C655.478 517.885 655.414 518.248 655.414 518.696V523H652.374ZM674.389 523V521.384L674.181 520.984V518.008C674.181 517.528 674.032 517.16 673.733 516.904C673.445 516.637 672.981 516.504 672.341 516.504C671.925 516.504 671.504 516.573 671.077 516.712C670.651 516.84 670.288 517.021 669.989 517.256L668.965 515.192C669.456 514.872 670.043 514.627 670.725 514.456C671.419 514.275 672.107 514.184 672.789 514.184C674.197 514.184 675.285 514.509 676.053 515.16C676.832 515.8 677.221 516.808 677.221 518.184V523H674.389ZM671.829 523.144C671.136 523.144 670.549 523.027 670.069 522.792C669.589 522.557 669.221 522.237 668.965 521.832C668.72 521.427 668.597 520.973 668.597 520.472C668.597 519.939 668.731 519.48 668.997 519.096C669.275 518.701 669.696 518.403 670.261 518.2C670.827 517.987 671.557 517.88 672.453 517.88H674.501V519.464H672.869C672.379 519.464 672.032 519.544 671.829 519.704C671.637 519.864 671.541 520.077 671.541 520.344C671.541 520.611 671.643 520.824 671.845 520.984C672.048 521.144 672.325 521.224 672.677 521.224C673.008 521.224 673.307 521.144 673.573 520.984C673.851 520.813 674.053 520.557 674.181 520.216L674.597 521.336C674.437 521.933 674.123 522.387 673.653 522.696C673.195 522.995 672.587 523.144 671.829 523.144ZM683.025 523.144C682.236 523.144 681.516 522.963 680.865 522.6C680.225 522.227 679.713 521.709 679.329 521.048C678.945 520.376 678.753 519.576 678.753 518.648C678.753 517.731 678.945 516.941 679.329 516.28C679.713 515.608 680.225 515.091 680.865 514.728C681.516 514.365 682.236 514.184 683.025 514.184C683.772 514.184 684.401 514.344 684.913 514.664C685.436 514.984 685.831 515.475 686.097 516.136C686.364 516.797 686.497 517.635 686.497 518.648C686.497 519.683 686.369 520.531 686.113 521.192C685.857 521.853 685.473 522.344 684.961 522.664C684.449 522.984 683.804 523.144 683.025 523.144ZM683.665 520.728C684.007 520.728 684.311 520.648 684.577 520.488C684.855 520.328 685.073 520.093 685.233 519.784C685.393 519.464 685.473 519.085 685.473 518.648C685.473 518.211 685.393 517.843 685.233 517.544C685.073 517.235 684.855 517 684.577 516.84C684.311 516.68 684.007 516.6 683.665 516.6C683.313 516.6 682.999 516.68 682.721 516.84C682.455 517 682.241 517.235 682.081 517.544C681.921 517.843 681.841 518.211 681.841 518.648C681.841 519.085 681.921 519.464 682.081 519.784C682.241 520.093 682.455 520.328 682.721 520.488C682.999 520.648 683.313 520.728 683.665 520.728ZM685.569 523V521.512L685.585 518.648L685.425 515.784V511.128H688.465V523H685.569ZM694.965 523.144C693.941 523.144 693.045 522.952 692.277 522.568C691.52 522.173 690.928 521.64 690.501 520.968C690.085 520.285 689.877 519.512 689.877 518.648C689.877 517.784 690.08 517.016 690.485 516.344C690.901 515.661 691.472 515.133 692.197 514.76C692.923 514.376 693.739 514.184 694.645 514.184C695.499 514.184 696.277 514.36 696.981 514.712C697.685 515.053 698.245 515.56 698.661 516.232C699.077 516.904 699.285 517.72 699.285 518.68C699.285 518.787 699.28 518.909 699.269 519.048C699.259 519.187 699.248 519.315 699.237 519.432H692.373V517.832H697.621L696.469 518.28C696.48 517.885 696.405 517.544 696.245 517.256C696.096 516.968 695.883 516.744 695.605 516.584C695.339 516.424 695.024 516.344 694.661 516.344C694.299 516.344 693.979 516.424 693.701 516.584C693.435 516.744 693.227 516.973 693.077 517.272C692.928 517.56 692.853 517.901 692.853 518.296V518.76C692.853 519.187 692.939 519.555 693.109 519.864C693.291 520.173 693.547 520.413 693.877 520.584C694.208 520.744 694.603 520.824 695.061 520.824C695.488 520.824 695.851 520.765 696.149 520.648C696.459 520.52 696.763 520.328 697.061 520.072L698.661 521.736C698.245 522.195 697.733 522.547 697.125 522.792C696.517 523.027 695.797 523.144 694.965 523.144ZM709.887 523.144C708.863 523.144 707.967 522.952 707.199 522.568C706.442 522.173 705.85 521.64 705.423 520.968C705.007 520.285 704.799 519.512 704.799 518.648C704.799 517.784 705.002 517.016 705.407 516.344C705.823 515.661 706.394 515.133 707.119 514.76C707.845 514.376 708.661 514.184 709.567 514.184C710.421 514.184 711.199 514.36 711.903 514.712C712.607 515.053 713.167 515.56 713.583 516.232C713.999 516.904 714.207 517.72 714.207 518.68C714.207 518.787 714.202 518.909 714.191 519.048C714.181 519.187 714.17 519.315 714.159 519.432H707.295V517.832H712.543L711.391 518.28C711.402 517.885 711.327 517.544 711.167 517.256C711.018 516.968 710.805 516.744 710.527 516.584C710.261 516.424 709.946 516.344 709.583 516.344C709.221 516.344 708.901 516.424 708.623 516.584C708.357 516.744 708.149 516.973 707.999 517.272C707.85 517.56 707.775 517.901 707.775 518.296V518.76C707.775 519.187 707.861 519.555 708.031 519.864C708.213 520.173 708.469 520.413 708.799 520.584C709.13 520.744 709.525 520.824 709.983 520.824C710.41 520.824 710.773 520.765 711.071 520.648C711.381 520.52 711.685 520.328 711.983 520.072L713.583 521.736C713.167 522.195 712.655 522.547 712.047 522.792C711.439 523.027 710.719 523.144 709.887 523.144ZM720.67 523V521.384L720.462 520.984V518.008C720.462 517.528 720.313 517.16 720.014 516.904C719.726 516.637 719.262 516.504 718.622 516.504C718.206 516.504 717.785 516.573 717.358 516.712C716.932 516.84 716.569 517.021 716.27 517.256L715.246 515.192C715.737 514.872 716.324 514.627 717.006 514.456C717.7 514.275 718.388 514.184 719.07 514.184C720.478 514.184 721.566 514.509 722.334 515.16C723.113 515.8 723.502 516.808 723.502 518.184V523H720.67ZM718.11 523.144C717.417 523.144 716.83 523.027 716.35 522.792C715.87 522.557 715.502 522.237 715.246 521.832C715.001 521.427 714.878 520.973 714.878 520.472C714.878 519.939 715.012 519.48 715.278 519.096C715.556 518.701 715.977 518.403 716.542 518.2C717.108 517.987 717.838 517.88 718.734 517.88H720.782V519.464H719.15C718.66 519.464 718.313 519.544 718.11 519.704C717.918 519.864 717.822 520.077 717.822 520.344C717.822 520.611 717.924 520.824 718.126 520.984C718.329 521.144 718.606 521.224 718.958 521.224C719.289 521.224 719.588 521.144 719.854 520.984C720.132 520.813 720.334 520.557 720.462 520.216L720.878 521.336C720.718 521.933 720.404 522.387 719.934 522.696C719.476 522.995 718.868 523.144 718.11 523.144ZM728.573 523.144C727.837 523.144 727.117 523.059 726.413 522.888C725.72 522.717 725.16 522.504 724.733 522.248L725.645 520.168C726.051 520.413 726.525 520.611 727.069 520.76C727.613 520.899 728.147 520.968 728.669 520.968C729.181 520.968 729.533 520.915 729.725 520.808C729.928 520.701 730.029 520.557 730.029 520.376C730.029 520.205 729.933 520.083 729.741 520.008C729.56 519.923 729.315 519.859 729.005 519.816C728.707 519.773 728.376 519.725 728.013 519.672C727.651 519.619 727.283 519.549 726.909 519.464C726.547 519.368 726.211 519.229 725.901 519.048C725.603 518.856 725.363 518.6 725.181 518.28C725 517.96 724.909 517.555 724.909 517.064C724.909 516.509 725.069 516.019 725.389 515.592C725.72 515.155 726.2 514.813 726.829 514.568C727.459 514.312 728.227 514.184 729.133 514.184C729.741 514.184 730.355 514.248 730.973 514.376C731.603 514.493 732.131 514.675 732.557 514.92L731.645 516.984C731.219 516.739 730.792 516.573 730.365 516.488C729.939 516.392 729.533 516.344 729.149 516.344C728.637 516.344 728.275 516.403 728.061 516.52C727.859 516.637 727.757 516.781 727.757 516.952C727.757 517.123 727.848 517.256 728.029 517.352C728.211 517.437 728.451 517.507 728.749 517.56C729.059 517.603 729.395 517.651 729.757 517.704C730.12 517.747 730.483 517.816 730.845 517.912C731.219 518.008 731.555 518.152 731.853 518.344C732.163 518.525 732.408 518.776 732.589 519.096C732.771 519.405 732.861 519.805 732.861 520.296C732.861 520.829 732.696 521.309 732.365 521.736C732.045 522.163 731.565 522.504 730.925 522.76C730.296 523.016 729.512 523.144 728.573 523.144ZM735.659 526.248C735.201 526.248 734.737 526.173 734.267 526.024C733.809 525.885 733.435 525.699 733.147 525.464L734.203 523.336C734.385 523.496 734.593 523.619 734.827 523.704C735.073 523.8 735.313 523.848 735.547 523.848C735.878 523.848 736.139 523.773 736.331 523.624C736.523 523.475 736.689 523.24 736.827 522.92L737.227 521.912L737.467 521.608L740.411 514.328H743.307L739.563 523.352C739.265 524.099 738.918 524.68 738.523 525.096C738.139 525.523 737.707 525.821 737.227 525.992C736.758 526.163 736.235 526.248 735.659 526.248ZM736.843 523.368L733.019 514.328H736.139L738.955 521.336L736.843 523.368Z"
        fill="url(#paint3_linear_3677_331)" />
    <defs>
        <linearGradient id="paint0_linear_3677_331" x1="675.304" y1="206.615" x2="830.909" y2="403.856"
            gradientUnits="userSpaceOnUse">
            <stop stop-color="#006B5C" />
            <stop offset="1" stop-color="#00C2A8" />
        </linearGradient>
        <linearGradient id="paint1_linear_3677_331" x1="564.832" y1="242.524" x2="640.679" y2="365.671"
            gradientUnits="userSpaceOnUse">
            <stop stop-color="#006B5C" />
            <stop offset="1" stop-color="#00C2A8" />
        </linearGradient>
        <linearGradient id="paint2_linear_3677_331" x1="637.63" y1="437.994" x2="664.851" y2="516.563"
            gradientUnits="userSpaceOnUse">
            <stop stop-color="#006B5C" />
            <stop offset="1" stop-color="#00C2A8" />
        </linearGradient>
        <linearGradient id="paint3_linear_3677_331" x1="635.1" y1="497.452" x2="638.424" y2="537.174"
            gradientUnits="userSpaceOnUse">
            <stop stop-color="#006B5C" />
            <stop offset="1" stop-color="#00C2A8" />
        </linearGradient>
    </defs>
</svg>