<svg width="64" height="64" viewBox="0 0 283 160" fill="none" xmlns="http://www.w3.org/2000/svg">
  <path d="M240.149 0.283852C253.555 -0.227187 268.818 0.0859784 282.292 0.19603C273.539 10.5187 265.301 21.7159 256.859 32.5045C226.6 71.1807 197.175 111.549 165.644 149.113C154.207 160.03 138.353 163.958 124.528 155.195C114.587 148.89 110.193 141.145 103.109 132.616C95.0882 122.952 87.9858 111.724 79.481 102.815C98.0628 109.67 118.267 108.393 137.221 103.909C162.841 95.3218 183.96 83.579 203.799 64.9287C205.681 63.1609 212.012 59.3267 212.559 57.0612C211.095 56.1305 198.026 65.04 195.729 66.4449C170.796 81.7234 142.183 96.6272 112.344 97.4058C105.828 97.5814 98.2512 96.1237 91.8685 95.0056C124.917 91.3704 151.889 64.9814 173.95 42.2862C193.326 22.3539 210.583 2.6927 240.149 0.283852Z" fill="url(#paint0_linear_voya_icon)"/>
  <path d="M0 0.0703125L40.1559 0.199687C48.9509 0.21198 58.0321 -0.200136 66.7616 0.968286C73.8307 1.91426 81.0969 3.74123 87.317 7.33021C102.188 15.9096 126.75 47.1403 137.897 61.6929C134.438 65.3106 128.204 69.4726 123.972 72.2942C110.652 81.0339 95.2993 86.4136 79.2942 84.675C76.3225 84.6282 63.9754 81.9062 62.1675 79.6934C41.0288 53.7785 21.0632 25.9904 0 0.0703125Z" fill="url(#paint1_linear_voya_icon)"/>
  <defs>
    <linearGradient id="paint0_linear_voya_icon" x1="176.304" y1="-76.3847" x2="331.909" y2="120.856" gradientUnits="userSpaceOnUse">
      <stop stop-color="#006B5C"/>
      <stop offset="1" stop-color="#00C2A8"/>
    </linearGradient>
    <linearGradient id="paint1_linear_voya_icon" x1="65.8325" y1="-40.4758" x2="141.679" y2="82.6714" gradientUnits="userSpaceOnUse">
      <stop stop-color="#006B5C"/>
      <stop offset="1" stop-color="#00C2A8"/>
    </linearGradient>
  </defs>
</svg>
