<svg width="48" height="64" viewBox="0 0 48 64" fill="none" xmlns="http://www.w3.org/2000/svg">
<rect width="48" height="48" rx="12" fill="#E5E2E1"/>
<path d="M24 29.5C25.25 29.5 26.3125 29.0625 27.1875 28.1875C28.0625 27.3125 28.5 26.25 28.5 25C28.5 23.75 28.0625 22.6875 27.1875 21.8125C26.3125 20.9375 25.25 20.5 24 20.5C22.75 20.5 21.6875 20.9375 20.8125 21.8125C19.9375 22.6875 19.5 23.75 19.5 25C19.5 26.25 19.9375 27.3125 20.8125 28.1875C21.6875 29.0625 22.75 29.5 24 29.5ZM24 27.5C23.3 27.5 22.7083 27.2583 22.225 26.775C21.7417 26.2917 21.5 25.7 21.5 25C21.5 24.3 21.7417 23.7083 22.225 23.225C22.7083 22.7417 23.3 22.5 24 22.5C24.7 22.5 25.2917 22.7417 25.775 23.225C26.2583 23.7083 26.5 24.3 26.5 25C26.5 25.7 26.2583 26.2917 25.775 26.775C25.2917 27.2583 24.7 27.5 24 27.5ZM16 33C15.45 33 14.9792 32.8042 14.5875 32.4125C14.1958 32.0208 14 31.55 14 31V19C14 18.45 14.1958 17.9792 14.5875 17.5875C14.9792 17.1958 15.45 17 16 17H19.15L21 15H27L28.85 17H32C32.55 17 33.0208 17.1958 33.4125 17.5875C33.8042 17.9792 34 18.45 34 19V31C34 31.55 33.8042 32.0208 33.4125 32.4125C33.0208 32.8042 32.55 33 32 33H16ZM16 31H32V19H27.95L26.125 17H21.875L20.05 19H16V31Z" fill="#3C4A46"/>
</svg>
