<svg width="48" height="64" viewBox="0 0 48 64" fill="none" xmlns="http://www.w3.org/2000/svg">
<rect width="48" height="48" rx="12" fill="#E5E2E1"/>
<path d="M18 26C17.45 26 16.9792 25.8042 16.5875 25.4125C16.1958 25.0208 16 24.55 16 24C16 23.45 16.1958 22.9792 16.5875 22.5875C16.9792 22.1958 17.45 22 18 22C18.55 22 19.0208 22.1958 19.4125 22.5875C19.8042 22.9792 20 23.45 20 24C20 24.55 19.8042 25.0208 19.4125 25.4125C19.0208 25.8042 18.55 26 18 26ZM24 26C23.45 26 22.9792 25.8042 22.5875 25.4125C22.1958 25.0208 22 24.55 22 24C22 23.45 22.1958 22.9792 22.5875 22.5875C22.9792 22.1958 23.45 22 24 22C24.55 22 25.0208 22.1958 25.4125 22.5875C25.8042 22.9792 26 23.45 26 24C26 24.55 25.8042 25.0208 25.4125 25.4125C25.0208 25.8042 24.55 26 24 26ZM30 26C29.45 26 28.9792 25.8042 28.5875 25.4125C28.1958 25.0208 28 24.55 28 24C28 23.45 28.1958 22.9792 28.5875 22.5875C28.9792 22.1958 29.45 22 30 22C30.55 22 31.0208 22.1958 31.4125 22.5875C31.8042 22.9792 32 23.45 32 24C32 24.55 31.8042 25.0208 31.4125 25.4125C31.0208 25.8042 30.55 26 30 26Z" fill="#3C4A46"/>
</svg>
