<svg width="48" height="64" viewBox="0 0 48 64" fill="none" xmlns="http://www.w3.org/2000/svg">
<rect width="48" height="48" rx="12" fill="#00C2A8" fill-opacity="0.1"/>
<path d="M24 34C22.6333 34 21.3417 33.7375 20.125 33.2125C18.9083 32.6875 17.8458 31.9708 16.9375 31.0625C16.0292 30.1542 15.3125 29.0917 14.7875 27.875C14.2625 26.6583 14 25.3667 14 24C14 22.6167 14.2708 21.3167 14.8125 20.1C15.3542 18.8833 16.0875 17.825 17.0125 16.925C17.9375 16.025 19.0167 15.3125 20.25 14.7875C21.4833 14.2625 22.8 14 24.2 14C25.5333 14 26.7917 14.2292 27.975 14.6875C29.1583 15.1458 30.1958 15.7792 31.0875 16.5875C31.9792 17.3958 32.6875 18.3542 33.2125 19.4625C33.7375 20.5708 34 21.7667 34 23.05C34 24.9667 33.4167 26.4375 32.25 27.4625C31.0833 28.4875 29.6667 29 28 29H26.15C26 29 25.8958 29.0417 25.8375 29.125C25.7792 29.2083 25.75 29.3 25.75 29.4C25.75 29.6 25.875 29.8875 26.125 30.2625C26.375 30.6375 26.5 31.0667 26.5 31.55C26.5 32.3833 26.2708 33 25.8125 33.4C25.3542 33.8 24.75 34 24 34ZM18.5 25C18.9333 25 19.2917 24.8583 19.575 24.575C19.8583 24.2917 20 23.9333 20 23.5C20 23.0667 19.8583 22.7083 19.575 22.425C19.2917 22.1417 18.9333 22 18.5 22C18.0667 22 17.7083 22.1417 17.425 22.425C17.1417 22.7083 17 23.0667 17 23.5C17 23.9333 17.1417 24.2917 17.425 24.575C17.7083 24.8583 18.0667 25 18.5 25ZM21.5 21C21.9333 21 22.2917 20.8583 22.575 20.575C22.8583 20.2917 23 19.9333 23 19.5C23 19.0667 22.8583 18.7083 22.575 18.425C22.2917 18.1417 21.9333 18 21.5 18C21.0667 18 20.7083 18.1417 20.425 18.425C20.1417 18.7083 20 19.0667 20 19.5C20 19.9333 20.1417 20.2917 20.425 20.575C20.7083 20.8583 21.0667 21 21.5 21ZM26.5 21C26.9333 21 27.2917 20.8583 27.575 20.575C27.8583 20.2917 28 19.9333 28 19.5C28 19.0667 27.8583 18.7083 27.575 18.425C27.2917 18.1417 26.9333 18 26.5 18C26.0667 18 25.7083 18.1417 25.425 18.425C25.1417 18.7083 25 19.0667 25 19.5C25 19.9333 25.1417 20.2917 25.425 20.575C25.7083 20.8583 26.0667 21 26.5 21ZM29.5 25C29.9333 25 30.2917 24.8583 30.575 24.575C30.8583 24.2917 31 23.9333 31 23.5C31 23.0667 30.8583 22.7083 30.575 22.425C30.2917 22.1417 29.9333 22 29.5 22C29.0667 22 28.7083 22.1417 28.425 22.425C28.1417 22.7083 28 23.0667 28 23.5C28 23.9333 28.1417 24.2917 28.425 24.575C28.7083 24.8583 29.0667 25 29.5 25Z" fill="#00C2A8"/>
</svg>
