<svg width="48" height="64" viewBox="0 0 48 64" fill="none" xmlns="http://www.w3.org/2000/svg">
<rect width="48" height="48" rx="12" fill="#E5E2E1"/>
<path d="M15 26V24H22V26H15ZM15 22V20H26V22H15ZM15 18V16H26V18H15ZM24 32V28.925L29.525 23.425C29.675 23.275 29.8417 23.1667 30.025 23.1C30.2083 23.0333 30.3917 23 30.575 23C30.775 23 30.9667 23.0375 31.15 23.1125C31.3333 23.1875 31.5 23.3 31.65 23.45L32.575 24.375C32.7083 24.525 32.8125 24.6917 32.8875 24.875C32.9625 25.0583 33 25.2417 33 25.425C33 25.6083 32.9667 25.7958 32.9 25.9875C32.8333 26.1792 32.725 26.35 32.575 26.5L27.075 32H24ZM31.5 25.425L30.575 24.5L31.5 25.425ZM25.5 30.5H26.45L29.475 27.45L29.025 26.975L28.55 26.525L25.5 29.55V30.5ZM29.025 26.975L28.55 26.525L29.475 27.45L29.025 26.975Z" fill="#3C4A46"/>
</svg>
